<svg xmlns="http://www.w3.org/2000/svg" viewBox="0 0 500 500"><defs><style>.cls-1{fill:#fff;}.cls-2{fill:#ffcc23;}.cls-3,.cls-4,.cls-6{fill:#2744a2;}.cls-4{font-size:43.75px;font-family:Montserrat-ExtraBold, Montserrat;font-weight:800;}.cls-5{letter-spacing:-0.06em;}.cls-6{font-size:17.1px;font-family:Montserrat-Regular, Montserrat;letter-spacing:0.18em;}.cls-7{letter-spacing:0.2em;}</style></defs><g id="BACKGROUND"><rect class="cls-1" width="500" height="500"/></g><g id="OBJECTS"><path class="cls-2" d="M234.58,226.69l-56-31.22a2.15,2.15,0,0,1-.48-3.41,12.45,12.45,0,0,1,10.84-3.49L208,191.74l4.32-4.33a4.64,4.64,0,0,1,6.56,0h0a4.63,4.63,0,0,1,.31,6.18l13.43,2.23,4.79-4.79A4.64,4.64,0,0,1,244,197.6l-.09.09,16.86,2.79,10.34-10.34-31.57-31.57a41.4,41.4,0,0,0-58.54,0h0a41.39,41.39,0,0,0,0,58.53l31.58,31.57Z"/><path class="cls-2" d="M287.75,206.77,277.42,217.1,280.21,234l.09-.09a4.64,4.64,0,1,1,6.56,6.57l-4.79,4.78,1.3,7.83,25.34-25.33Z"/><polygon class="cls-2" points="251.2 243.32 229.22 265.3 250.18 286.25 266.2 270.22 251.2 243.32"/><polygon class="cls-3" points="207.67 211.69 191.64 227.72 212.6 248.67 234.58 226.69 207.67 211.69"/><path class="cls-3" d="M319.33,158.57h0a41.4,41.4,0,0,0-58.54,0l-36,36,7.83,1.3,4.79-4.79A4.64,4.64,0,0,1,244,197.6l-.09.09,16.86,2.79,12-12a56.36,56.36,0,0,1,26.63-14.94,4.09,4.09,0,0,1,4.93,4.94,56.31,56.31,0,0,1-14.93,26.62l-12,12L280.21,234l.09-.09a4.64,4.64,0,1,1,6.56,6.57l-4.79,4.78,1.3,7.83,36-36A41.39,41.39,0,0,0,319.33,158.57Z"/><polygon class="cls-3" points="251.2 243.32 229.22 265.3 250.18 286.25 266.2 270.22 251.2 243.32"/><text class="cls-4" transform="translate(107.68 329.11)">ABY TR<tspan class="cls-5" x="165.38" y="0">A</tspan><tspan x="197.28" y="0">VEL</tspan></text><text class="cls-6" transform="translate(203.58 349.26)">A<tspan class="cls-7" x="15.73" y="0">GENCY</tspan></text></g></svg>